<svg width="964" height="92" viewBox="0 0 964 92" fill="none" xmlns="http://www.w3.org/2000/svg">
<path d="M38.6414 0H6.10127V22H0V52H6.10127V92H101.688V62H38.6414V52H101.688V22H38.6414V0Z" fill="#495BFB"/>
<path d="M170.835 92V21.6175H185.08V28.153H185.589C186.674 26.7454 187.996 25.4047 189.557 24.1311C193.219 21.4499 197.323 20.1093 201.868 20.1093C208.651 20.1093 214.315 22.623 218.859 27.6503C223.472 32.6106 225.778 39.1461 225.778 47.2568C225.778 55.3676 223.472 61.9366 218.859 66.9639C214.315 71.9242 208.651 74.4044 201.868 74.4044C197.323 74.4044 193.219 73.0637 189.557 70.3825C187.996 69.1089 186.674 67.7683 185.589 66.3606H185.08V92H170.835ZM188.743 36.1967C186.301 38.8109 185.08 42.4976 185.08 47.2568C185.08 52.016 186.301 55.7362 188.743 58.4175C191.184 61.0317 194.373 62.3388 198.307 62.3388C202.037 62.3388 205.09 60.9982 207.464 58.3169C209.838 55.6357 211.025 51.949 211.025 47.2568C211.025 42.5647 209.838 38.878 207.464 36.1967C205.09 33.5155 202.037 32.1749 198.307 32.1749C194.373 32.1749 191.184 33.5155 188.743 36.1967Z" fill="black"/>
<path d="M233.409 72.8962V21.6175H247.653V29.1585H248.162C248.772 27.5497 249.688 26.1421 250.909 24.9355C253.69 22.0532 257.183 20.612 261.389 20.612H267.498V34.1858H259.862C255.996 34.1858 252.978 35.2248 250.807 37.3027C248.704 39.3137 247.653 42.129 247.653 45.7486V72.8962H233.409Z" fill="black"/>
<path d="M277.7 66.5617C272.274 61.2663 269.561 54.8313 269.561 47.2568C269.561 39.6823 272.274 33.2809 277.7 28.0525C283.127 22.757 289.91 20.1093 298.049 20.1093C306.121 20.1093 312.87 22.757 318.297 28.0525C323.791 33.2809 326.538 39.6823 326.538 47.2568C326.538 54.8313 323.791 61.2663 318.297 66.5617C312.87 71.7902 306.121 74.4044 298.049 74.4044C289.91 74.4044 283.127 71.7902 277.7 66.5617ZM288.282 36.3978C285.636 39.2131 284.314 42.8328 284.314 47.2568C284.314 51.6809 285.636 55.3005 288.282 58.1158C290.927 60.9311 294.183 62.3388 298.049 62.3388C301.916 62.3388 305.172 60.9311 307.817 58.1158C310.462 55.3005 311.785 51.6809 311.785 47.2568C311.785 42.8328 310.462 39.2131 307.817 36.3978C305.172 33.5825 301.916 32.1749 298.049 32.1749C294.183 32.1749 290.927 33.5825 288.282 36.3978Z" fill="black"/>
<path d="M337.969 66.9639C333.425 61.9366 331.152 55.3676 331.152 47.2568C331.152 39.1461 333.425 32.6106 337.969 27.6503C342.582 22.623 348.279 20.1093 355.062 20.1093C359.607 20.1093 363.711 21.4499 367.374 24.1311C368.934 25.4047 370.256 26.7454 371.342 28.153H371.85V0H386.095V72.8962H371.85V66.3606H371.342C370.256 67.7683 368.934 69.1089 367.374 70.3825C363.711 73.0637 359.607 74.4044 355.062 74.4044C348.279 74.4044 342.582 71.9242 337.969 66.9639ZM349.466 36.1967C347.092 38.878 345.905 42.5647 345.905 47.2568C345.905 51.949 347.092 55.6357 349.466 58.3169C351.84 60.9982 354.893 62.3388 358.624 62.3388C362.558 62.3388 365.746 61.0317 368.188 58.4175C370.629 55.7362 371.85 52.016 371.85 47.2568C371.85 42.4976 370.629 38.8109 368.188 36.1967C365.746 33.5155 362.558 32.1749 358.624 32.1749C354.893 32.1749 351.84 33.5155 349.466 36.1967Z" fill="black"/>
<path d="M396.269 52.7869V21.6175H410.514V50.776C410.514 54.5297 411.429 57.412 413.261 59.4229C415.16 61.3668 417.805 62.3388 421.197 62.3388C424.588 62.3388 427.471 61.0652 429.845 58.518C432.219 55.9709 433.406 52.7199 433.406 48.765V21.6175H447.651V72.8962H433.406V65.8579H432.897C432.084 67.3996 430.829 68.8408 429.133 70.1814C425.47 72.9967 421.299 74.4044 416.618 74.4044C410.174 74.4044 405.155 72.561 401.56 68.8743C398.033 65.1876 396.269 59.8251 396.269 52.7869Z" fill="black"/>
<path d="M462.834 66.5617C457.476 61.2663 454.797 54.8313 454.797 47.2568C454.797 39.6823 457.476 33.2809 462.834 28.0525C468.261 22.757 474.908 20.1093 482.776 20.1093C492.205 20.1093 499.395 23.4608 504.346 30.1639C506.585 33.0463 508.213 36.3978 509.23 40.2186H494.477C493.867 38.7439 493.053 37.4033 492.035 36.1967C489.458 33.5155 486.371 32.1749 482.776 32.1749C479.181 32.1749 476.061 33.5825 473.416 36.3978C470.838 39.2131 469.55 42.8328 469.55 47.2568C469.55 51.6809 470.838 55.3005 473.416 58.1158C476.061 60.9311 479.181 62.3388 482.776 62.3388C486.371 62.3388 489.458 60.9982 492.035 58.3169C493.053 57.1104 493.867 55.7698 494.477 54.2951H509.23C508.281 58.1829 506.721 61.5344 504.55 64.3497C499.598 71.0528 492.341 74.4044 482.776 74.4044C474.908 74.4044 468.261 71.7902 462.834 66.5617Z" fill="black"/>
<path d="M512.279 35.6831V21.6175H518.892V0H533.136V21.6175H589.101V35.6831H533.136V58.8306H589.101V72.8962H518.892V35.6831H512.279Z" fill="black"/>
<path d="M592.614 56.306H607.367C607.842 57.5126 608.588 58.6186 609.606 59.624C611.776 61.769 614.761 62.8415 618.559 62.8415C624.325 62.8415 627.208 61.1658 627.208 57.8142C627.208 57.278 627.072 56.8087 626.801 56.4066C626.529 55.9373 626.054 55.5352 625.376 55.2C624.698 54.7978 624.053 54.4627 623.443 54.1945C622.833 53.9264 621.917 53.6583 620.696 53.3902C619.543 53.055 618.593 52.8204 617.847 52.6863C617.169 52.5523 616.05 52.3177 614.489 51.9825C612.997 51.6474 611.912 51.4127 611.234 51.2787C600.516 48.9996 595.158 43.8047 595.158 35.694C595.158 31.404 597.091 27.7508 600.957 24.7344C604.891 21.651 610.25 20.1093 617.033 20.1093C626.122 20.1093 632.939 22.8911 637.484 28.4546C639.451 30.8678 640.774 33.616 641.452 36.6995H627.208C626.733 35.694 626.122 34.8561 625.376 34.1858C623.273 32.51 620.492 31.6721 617.033 31.6721C614.591 31.6721 612.794 32.0743 611.641 32.8787C610.487 33.616 609.911 34.5545 609.911 35.694C609.911 36.0962 609.979 36.4984 610.114 36.9006C610.318 37.2357 610.623 37.5709 611.03 37.906C611.437 38.1741 611.844 38.4423 612.251 38.7104C612.658 38.9115 613.235 39.1461 613.981 39.4142C614.727 39.6153 615.371 39.8164 615.914 40.0175C616.524 40.2186 617.304 40.4197 618.254 40.6208C619.204 40.8219 620.018 40.9894 620.696 41.1235C621.374 41.2576 622.256 41.4586 623.341 41.7268C624.427 41.9279 625.308 42.0954 625.987 42.2295C636.636 44.5756 641.961 49.7705 641.961 57.8142C641.961 62.3053 639.858 66.1931 635.652 69.4776C631.447 72.7621 625.749 74.4044 618.559 74.4044C608.927 74.4044 601.805 71.388 597.193 65.3552C595.09 62.6069 593.564 59.5905 592.614 56.306Z" fill="black"/>
<path d="M654.096 66.5617C648.738 61.2663 646.058 54.8313 646.058 47.2568C646.058 39.6823 648.738 33.2809 654.096 28.0525C659.523 22.757 666.17 20.1093 674.038 20.1093C683.467 20.1093 690.657 23.4608 695.608 30.1639C697.847 33.0463 699.474 36.3978 700.492 40.2186H685.739C685.128 38.7439 684.314 37.4033 683.297 36.1967C680.719 33.5155 677.633 32.1749 674.038 32.1749C670.443 32.1749 667.323 33.5825 664.678 36.3978C662.1 39.2131 660.811 42.8328 660.811 47.2568C660.811 51.6809 662.1 55.3005 664.678 58.1158C667.323 60.9311 670.443 62.3388 674.038 62.3388C677.633 62.3388 680.719 60.9982 683.297 58.3169C684.314 57.1104 685.128 55.7698 685.739 54.2951H700.492C699.542 58.1829 697.982 61.5344 695.812 64.3497C690.86 71.0528 683.602 74.4044 674.038 74.4044C666.17 74.4044 659.523 71.7902 654.096 66.5617Z" fill="black"/>
<path d="M708.933 12.8699C707.373 11.3282 706.593 9.55191 706.593 7.54098C706.593 5.53005 707.373 3.78725 708.933 2.31257C710.561 0.770855 712.494 0 714.732 0C716.971 0 718.87 0.770855 720.43 2.31257C722.058 3.78725 722.872 5.53005 722.872 7.54098C722.872 9.55191 722.058 11.3282 720.43 12.8699C718.87 14.3446 716.971 15.082 714.732 15.082C712.494 15.082 710.561 14.3446 708.933 12.8699ZM707.61 72.8962V21.6175H721.854V72.8962H707.61Z" fill="black"/>
<path d="M737.014 66.5617C731.656 61.2663 728.977 54.8313 728.977 47.2568C728.977 39.6823 731.656 33.2809 737.014 28.0525C742.441 22.757 749.088 20.1093 756.957 20.1093C764.961 20.1093 771.54 22.7235 776.695 27.9519C781.85 33.1803 784.428 39.6153 784.428 47.2568V50.2732H743.73C744.272 53.6248 745.798 56.4736 748.308 58.8197C750.818 61.1658 753.701 62.3388 756.957 62.3388C760.552 62.3388 763.638 61.3333 766.215 59.3224C767.233 58.451 768.047 57.4455 768.657 56.306H783.919C782.766 59.7246 781.07 62.741 778.832 65.3552C773.405 71.388 766.114 74.4044 756.957 74.4044C749.088 74.4044 742.441 71.7902 737.014 66.5617ZM744.238 41.7268H769.166C768.623 39.0455 767.233 36.8 764.994 34.9902C762.824 33.1133 760.145 32.1749 756.957 32.1749C753.769 32.1749 751.055 33.0798 748.817 34.8896C746.579 36.6995 745.052 38.9785 744.238 41.7268Z" fill="black"/>
<path d="M792.019 72.8962V21.6175H806.263V28.6557H806.772C807.654 27.114 808.909 25.7064 810.537 24.4328C814.267 21.5505 818.439 20.1093 823.051 20.1093C829.495 20.1093 834.481 21.9526 838.008 25.6393C841.603 29.326 843.4 34.6885 843.4 41.7268V72.8962H829.156V43.7377C829.156 39.984 828.206 37.1352 826.307 35.1913C824.476 33.1803 821.864 32.1749 818.473 32.1749C815.081 32.1749 812.198 33.4485 809.824 35.9956C807.45 38.5428 806.263 41.7938 806.263 45.7486V72.8962H792.019Z" fill="black"/>
<path d="M858.087 66.5617C852.729 61.2663 850.049 54.8313 850.049 47.2568C850.049 39.6823 852.729 33.2809 858.087 28.0525C863.514 22.757 870.161 20.1093 878.029 20.1093C887.458 20.1093 894.648 23.4608 899.599 30.1639C901.838 33.0463 903.466 36.3978 904.483 40.2186H889.73C889.12 38.7439 888.306 37.4033 887.288 36.1967C884.711 33.5155 881.624 32.1749 878.029 32.1749C874.434 32.1749 871.314 33.5825 868.669 36.3978C866.091 39.2131 864.802 42.8328 864.802 47.2568C864.802 51.6809 866.091 55.3005 868.669 58.1158C871.314 60.9311 874.434 62.3388 878.029 62.3388C881.624 62.3388 884.711 60.9982 887.288 58.3169C888.306 57.1104 889.12 55.7698 889.73 54.2951H904.483C903.533 58.1829 901.973 61.5344 899.803 64.3497C894.851 71.0528 887.593 74.4044 878.029 74.4044C870.161 74.4044 863.514 71.7902 858.087 66.5617Z" fill="black"/>
<path d="M916.587 66.5617C911.228 61.2663 908.549 54.8313 908.549 47.2568C908.549 39.6823 911.228 33.2809 916.587 28.0525C922.013 22.757 928.661 20.1093 936.529 20.1093C944.533 20.1093 951.112 22.7235 956.267 27.9519C961.423 33.1803 964 39.6153 964 47.2568V50.2732H923.302C923.845 53.6248 925.371 56.4736 927.881 58.8197C930.39 61.1658 933.273 62.3388 936.529 62.3388C940.124 62.3388 943.21 61.3333 945.788 59.3224C946.805 58.451 947.619 57.4455 948.23 56.306H963.491C962.338 59.7246 960.642 62.741 958.404 65.3552C952.978 71.388 945.686 74.4044 936.529 74.4044C928.661 74.4044 922.013 71.7902 916.587 66.5617ZM923.811 41.7268H948.738C948.196 39.0455 946.805 36.8 944.567 34.9902C942.396 33.1133 939.717 32.1749 936.529 32.1749C933.341 32.1749 930.628 33.0798 928.389 34.8896C926.151 36.6995 924.625 38.9785 923.811 41.7268Z" fill="black"/>
</svg>
